<svg xmlns="http://www.w3.org/2000/svg" viewBox="0 0 347.16 330.52"><title>Asset 1</title><g id="Layer_2" data-name="Layer 2"><g id="_15" data-name="15"><path d="M100.94,327.53l-.12-11.27c3.66-.75,6.46-4.5,6.46-9.11a10.06,10.06,0,0,0-1.4-4.95l-.1-.21-12.69.1-.1.21a10.23,10.23,0,0,0-1.28,5.15c.1,4.52,3,8.17,6.76,8.8l.11,11.27c-2.15.12-3.87.45-3.87.86s2.25.87,5.05.87,5-.43,5-1-1.61-.75-3.85-.75Zm.31-22.21c2.69-1.51,4.2-1.18,4.85-.75a9.35,9.35,0,0,0-.54-1.51l-11.6-.21a9.9,9.9,0,0,0-1,2.47c.1,0,4.3,2.47,8.27,0Z" style="fill:#595959;fill-rule:evenodd"/><path d="M18.31,306h-.43l-1.4-2.26a3.22,3.22,0,0,0-1.06,1.61l2.47.65.21.31-.32.33h.43l-.11.43.33-.21.21.43.21-.43h.32L19,306.5l.43-.22,2.58.55a3.93,3.93,0,0,0-.32-1.94l-2.26,1.39-.43-.1.1-.43,2.15-1.39a2.92,2.92,0,0,0-1.61-1.18l-.54,2.57-.43.22-.21-.45.54-2.47a4.26,4.26,0,0,0-1.93.33l1.4,2.14Zm-4.94,21.88-.11-9.33c3-.53,5.38-3.65,5.27-7.4h0a4.88,4.88,0,0,0,1.82-.45,4,4,0,0,0,2.37-2.57,4.27,4.27,0,0,0-.11-3.44,4.41,4.41,0,0,0-5.91-2.24,4.6,4.6,0,0,0-2.69,4.4l-7.09.1-.1.22a7.65,7.65,0,0,0-1.08,4.08c.1,3.75,2.47,6.87,5.58,7.4l.11,9.23c-1.94.12-3.23.43-3.23.75s1.94.65,4.2.65,4.2-.33,4.2-.75-1.4-.65-3.23-.65Zm5.16-17.6a.65.65,0,0,0-.11-.43A3.48,3.48,0,0,0,20,309.5l-1-1.71L18.21,309h0a6.12,6.12,0,0,0-.75-1.94l-.1-.21h-.11l.43-.22L15.19,306v.86h-.43A3.7,3.7,0,0,1,17,303.18,3.57,3.57,0,0,1,21.85,305,3.78,3.78,0,0,1,20,309.95a3.93,3.93,0,0,1-1.5.31Zm3.22-2.79-2.59-.63,1.51,2.36a2.93,2.93,0,0,0,1.08-1.73ZM9.07,304.89c.21,0,.21.1.32.1s.22.12.33.22.1.21.22.31a.39.39,0,0,0,.1.33c.1.33.1.55.21.86h0a2.23,2.23,0,0,0,.11-.86,3,3,0,0,0-.22-1,1.12,1.12,0,0,0-.33-.43.82.82,0,0,0-.53-.22.82.82,0,0,0-.86.22v.1a4.07,4.07,0,0,1,.64.33Zm1.61-.33.11.1a.37.37,0,0,0,.1.22v.22a.38.38,0,0,1-.1.31h.1c.11,0,.11-.1.11-.31s.11-.22.11-.45-.11-.1-.11-.21a.25.25,0,0,0-.21-.22.34.34,0,0,0-.43,0h0a3.68,3.68,0,0,0,.32.33Zm.11,5.05c-2.16-1.3-3.44-1-4-.65a6.28,6.28,0,0,1,.53-1.29l9.56-.1a10.06,10.06,0,0,1,.75,1.92c-.11,0-3.55,2.06-6.87.12Z" style="fill:#595959;fill-rule:evenodd"/><path d="M12.94,170.53c.21-.86.87-3.1,1.4-5.16h1.61v18.79H4.46V165.38H7.14c.21,1.73.44,3.44.64,5.16H5.1c-.11,4.3-.11,8.7-.11,13H15.31c.11-4.3,0-8.6,0-13Zm1.72-6.11a23.51,23.51,0,0,0,.75-2.69c1.4.55,2.69,1,4,1.4h.11c-1.07-1.83-2.15-3.54-3.12-5.26h-.11c-1.82.75-3.76,1.49-5.58,2.36,1.4.43,2.69.86,4.08,1.39,0,.1-.32,1.29-.75,2.79H8.33c-.11-1.39-.43-2.36-1.4-2.89A6.21,6.21,0,0,0,4.23,161c-1.07-.12-2.14-.12-3.12-.22H.48c0,.22.11.43,0,.63v.65c.87.1,1.94.1,2.9.22a10.53,10.53,0,0,1,2.69.21h0c.75.33.86,1.08.86,1.93H3.48v20.72H16.92V164.42Zm-1,1c-.54,2.06-1.18,4.3-1.5,5.16H9.08c-.22-1.71-.44-3.42-.65-5.16Zm-4.84,11c.54.1,1.18.21,1.18.75.11.21-.1.53-.21.75-.11.53-.43,1.82-1,1.92-.21.12-.53-.1-.75-.21s-.53-.12-.75-.22-1.18-.31-1.28-.75.32-1,.43-1.39.33-1.28.75-1.4,1.18.33,1.61.55Zm4.95-1.73c-.22.55-.22,1.3-.75,1.3a2,2,0,0,1-.86-.22c-.44-.21-1.83-.43-1.93-1-.11-.33.21-.86.43-1.3.21-.63.21-1.39.75-1.49a3.28,3.28,0,0,1,1.61.43c.53.21,1.18.43,1.28.86s-.43,1-.53,1.39Zm.75,6.88c-.11.53-1.4.74-2,1a1.62,1.62,0,0,1-.75.22c-.54-.12-.86-1.4-1-1.93a1.63,1.63,0,0,1-.21-.75c0-.55.54-.65,1.07-.75a13.78,13.78,0,0,1,1.4-.53c.75-.12.86.74,1.07,1.39a2.43,2.43,0,0,1,.44,1.4Zm0-20.62a10,10,0,0,1,1.39-1.61,13.25,13.25,0,0,1,.11,2.14,10.93,10.93,0,0,0-1.5-.53Zm3.65,1.18c-.54-.1-1.08-.33-1.51-.43a20,20,0,0,1-.21-2.47c.64,1,1.08,1.94,1.72,2.89Zm-5.91-1.94c1.08-.43,2.15-.86,3.12-1.18a.43.43,0,0,0-.11.22,8.68,8.68,0,0,0-1.4,1.51c-.53-.22-1.08-.33-1.61-.55Z" style="fill:#595959;fill-rule:evenodd"/><path d="M182.26,256.12h0V236.58a9.08,9.08,0,0,0-1.4-3v-.43a.57.57,0,0,0,.33-.53.7.7,0,0,0-.63-.65c-.11-.1-1.4-.1-5.7-.1s-5.27.1-5.38.1a.68.68,0,0,0-.63.65.38.38,0,0,0,.1.31v.65a12.39,12.39,0,0,0-1.4,3v19.76h0v.1h.12v.1h0l.1.12h0a4.65,4.65,0,0,0,.86.31v1a.8.8,0,0,0,.22.43,33.69,33.69,0,0,0,6.44.75,13.8,13.8,0,0,0,5.91-1.08c.22-.1.33-.21.33-.43v-.53a.11.11,0,0,0-.1-.12l.64-.31a.41.41,0,0,0,.21-.55ZM168.4,256v-.43c6.23-1.83,4.3-5.68,13.11-5.58v6a19.28,19.28,0,0,1-13.11,0Zm1.29-22.11c.1-.1.1-.1.1-.22v-.43h10.32v.65c.21.33.44.75.64,1.08-1.51,4.38-7.74.1-12.35,5.56v-4a24.52,24.52,0,0,1,1.29-2.67Z" style="fill:#595959;fill-rule:evenodd"/><path d="M94.4,231.62a26.08,26.08,0,0,0-1.61,7.4v1.61c.33,3.54,1.73,5.8,5.15,6.13a55,55,0,0,1,0,11.15c-.2,0-.31.33-.41.33a1.47,1.47,0,0,1-.65.1,25.27,25.27,0,0,0-2.91.22.89.89,0,0,0-.86.33h11c-.21-.33-.53-.33-.86-.33a25.26,25.26,0,0,0-2.91-.22,1.4,1.4,0,0,1-.63-.1c-.1,0-.43-.33-.43-.33a1.62,1.62,0,0,1-.12-.75,56.76,56.76,0,0,1,.12-10.39c3.42-.33,4.83-2.59,5.15-6.13V239a30.17,30.17,0,0,0-1.61-7.4Zm9.47,9.44c-.33,3.12-1.83,5.26-5.27,5.26s-4.95-2-5.26-5.14a14.53,14.53,0,0,1,.31-4.85,35.06,35.06,0,0,1,1.08-4.18v-.1h7.74c.75,2.69,1.71,5.69,1.4,9Zm-10.22-4.73a14.53,14.53,0,0,0-.31,4.85c.31,3.1,1.94,5.14,5.26,5.14s4.95-2.14,5.27-5.26c.31-3.32-.65-6.32-1.4-9H94.73v.1a35.06,35.06,0,0,0-1.08,4.18Z" style="fill:#595959;fill-rule:evenodd"/><path d="M11,248.8c.33.43,1.08,1.06,1.18,1.39a9.33,9.33,0,0,1,0,1.83v5.46c-1.71.12-3.22.43-4.08,1.4H17.7c-1-1-2.59-1.28-4.42-1.4V252a10.93,10.93,0,0,1,0-1.83c.1-.43.87-1.08,1.18-1.51,2.47-3,4.85-5.79,7.31-8.7.53-.53,1.61-1.49,1-2H19.52c.33-1,.75-2,.86-2.35,1.4.43,2.69.86,4,1.28h.12c-1.08-1.73-2-3.44-3.12-5.26h-.1c-1.83.75-3.77,1.49-5.6,2.36,1.28.53,2.69,1,4.09,1.39-.12.33-.55,1.61-.86,2.57H2.75a3.79,3.79,0,0,1-.32.33v.33L5,241.49c1.94,2.48,4,4.83,6,7.31ZM23.17,235.9c-.53-.1-1.06-.43-1.49-.53a14.6,14.6,0,0,1-.22-2.36c.53,1,1.08,1.93,1.71,2.89Zm-3.65-1.28a19.41,19.41,0,0,1,1.28-1.51c.12.65.12,1.4.22,2a5.8,5.8,0,0,1-1.51-.53ZM17.26,234c1-.55,2.06-.87,3-1.3.1,0,0,.12-.1.22-.43.43-1,1.08-1.4,1.51-.43-.12-1-.33-1.51-.43Z" style="fill:#595959;fill-rule:evenodd"/><path d="M169.52,160.39a.36.36,0,0,1,.21.1c.21,0,.33.12.33.22s.21.21.21.31.1.22.21.33c0,.33.11.55.11.86h.1a2.23,2.23,0,0,0,.11-.86,1.72,1.72,0,0,0-.33-1,.84.84,0,0,0-.21-.43c-.21-.1-.33-.22-.54-.22a1.09,1.09,0,0,0-1,.22v.1a2.58,2.58,0,0,1,.75.33Zm9.24,1.08h-.54l-1.28-2.26a4.17,4.17,0,0,0-1.18,1.61l2.47.65.22.31-.33.33h.43l-.1.55.43-.33.21.43.11-.43.43.1-.22-.43.33-.22,2.59.55a3,3,0,0,0-.33-1.94l-2.26,1.39-.43-.1.1-.43,2.26-1.39a4.15,4.15,0,0,0-1.61-1.18l-.65,2.57-.32.22-.33-.45.64-2.47a3.15,3.15,0,0,0-1.93.43l1.28,2Zm1.82-3.66a4.47,4.47,0,0,0-3.54.12,4.57,4.57,0,0,0-2.68,4.4l-7.1.1v.22a7.64,7.64,0,0,0-1.07,4.08c0,3.75,2.47,6.87,5.48,7.4l.11,9.23c-1.83.12-3.23.43-3.23.75s1.94.65,4.19.65,4.2-.33,4.2-.75-1.28-.65-3.12-.65l-.21-9.23c3.12-.63,5.38-3.75,5.38-7.5h0a3.77,3.77,0,0,0,1.82-.45,4.59,4.59,0,0,0,2.36-2.57,4.3,4.3,0,0,0-.1-3.44,4.57,4.57,0,0,0-2.48-2.36Zm-5.37,4.52a3.55,3.55,0,0,1,2.26-3.65,3.65,3.65,0,0,1,4.84,1.81,3.79,3.79,0,0,1-1.83,4.95,4.51,4.51,0,0,1-1.61.31v-.43a4.19,4.19,0,0,0,1.61-.33l-1.08-1.71-.74,1.18h0a11,11,0,0,0-.86-1.94v-.2h-.11l.43-.22-2.47-.63v.86Zm7,.75-2.58-.65,1.4,2.14a2.73,2.73,0,0,0,1.18-1.49Zm-11.07-3a.33.33,0,0,1,.11.22v.33c.11.1,0,.21,0,.31v.1c.11-.1.11-.21.21-.41v-.45c0-.1,0-.1-.1-.21s0-.22-.11-.22-.33-.1-.43,0h0c.1.12.1.22.21.33Zm.11,5.05c-2.25-1.3-3.43-1-4-.65a3.33,3.33,0,0,1,.55-1.28l9.56-.1A14.09,14.09,0,0,1,178,165c-.11,0-3.54,2.16-6.77.12Z" style="fill:#595959;fill-rule:evenodd"/><path d="M99.82,183.36,99.7,174a7.24,7.24,0,0,0,5.38-7.52,9.18,9.18,0,0,0-1.08-4.18l-.1-.12H97.45a4.43,4.43,0,0,0-2.68-4.28,4.25,4.25,0,0,0-3.44-.12,4.42,4.42,0,0,0-2.59,2.36,4.6,4.6,0,0,0,2.26,6,2.37,2.37,0,0,0,1.18.33v.22c.1,3.65,2.47,6.87,5.59,7.3l.11,9.33c-1.83.12-3.24.43-3.24.75s1.93.65,4.2.65,4.3-.33,4.3-.75-1.4-.65-3.32-.65ZM96.7,162.21h-.44v-.74l-2.58.63.43.22h-.75l-.1-.12.43-.1-.33-.33.22-.31,2.47-.55A3.11,3.11,0,0,0,95,159.31l-1.39,2.16-.43.1-.12-.43,1.3-2.26a2.91,2.91,0,0,0-1.94-.33l.64,2.59-.32.33-.33-.22-.64-2.57a3.34,3.34,0,0,0-1.61,1.18l2.25,1.39.11.43-.43.1-2.26-1.39a3.3,3.3,0,0,0-.33,2l2.59-.65.43.33-.33.33.43-.1.11.43.32-.43.22.2a4.56,4.56,0,0,0-.54,1.28l-.33-.43L91.33,165l1,.33v.43c-.32-.1-.63-.1-1-.21a3.87,3.87,0,0,1-1.83-5.05,3.79,3.79,0,0,1,4.95-1.93,4.1,4.1,0,0,1,2.26,3.65Zm.63.75v.12l-.1-.12-3.44.12a6.79,6.79,0,0,0-.53,1.28c.64-.43,1.82-.75,4,.63,3.44,1.94,6.88-.1,7-.1a11.32,11.32,0,0,0-.75-1.94Zm-7.73.12,2.58-.65-1.4,2.26a3.53,3.53,0,0,1-1.18-1.61Z" style="fill:#595959;fill-rule:evenodd"/><path d="M102.82,94a4.61,4.61,0,0,1-1.18-.1,3.46,3.46,0,0,1-5.05,2.89,4.12,4.12,0,0,1-1.61.63,4.05,4.05,0,0,1-4.2-1.94,3.44,3.44,0,0,1-1.39.75,3,3,0,0,1-3.44-2.47,2.81,2.81,0,0,1,1.94-3.32v-.22a4,4,0,0,1,3.32-4.71,4.19,4.19,0,0,1,2.81.63,2.88,2.88,0,0,1,4.61.12,1.71,1.71,0,0,1,1-.33,2.79,2.79,0,0,1,3.34,2.36,3.16,3.16,0,0,1,0,1.39,2,2,0,0,1,1.71,1.71A2.21,2.21,0,0,1,102.82,94Zm-6.56,6.54a2.38,2.38,0,0,1,2.36,2.36,2.29,2.29,0,0,1-2.36,2.26A2.27,2.27,0,0,1,94,102.93a2.36,2.36,0,0,1,2.24-2.36ZM100,97.46c.1.12.1.22.1.43a1.45,1.45,0,0,1-1.51,1.4,1.51,1.51,0,0,1-1.49-1.4c0-.1,0-.1.1-.1a3.33,3.33,0,0,0,1.51.22,3.73,3.73,0,0,0,1.28-.55Zm-2,9.23a1.48,1.48,0,0,1,1.51,1.51A1.54,1.54,0,0,1,98,109.7a1.62,1.62,0,0,1-1.51-1.51A1.54,1.54,0,0,1,98,106.69Zm-5.92-.86a2.15,2.15,0,1,1,0,4.3,2.15,2.15,0,0,1,0-4.3ZM90.67,102a1.21,1.21,0,0,1,1.18,1.28,1.29,1.29,0,0,1-1.18,1.28,1.3,1.3,0,0,1-1.28-1.28A1.23,1.23,0,0,1,90.67,102Zm3.44-3.77A2.32,2.32,0,0,1,92,100.37a2.28,2.28,0,0,1-2.26-2.26A2.18,2.18,0,0,1,90,97a2.09,2.09,0,0,0,.86-.53,3.36,3.36,0,0,0,3.24,1.71Zm7.52-3.42v.63a3.15,3.15,0,0,1,1.61-.53c2.16,0,3.87,2.79,3.87,6.22s-1.71,6.34-3.87,6.34a2.57,2.57,0,0,1-1.61-.63v1.49a2.64,2.64,0,0,1-2.69,2.59h-8.6a2.61,2.61,0,0,1-2.57-2.59V96.82a4.1,4.1,0,0,0,1.61.1.69.69,0,0,0,.43-.1,2.75,2.75,0,0,0-.33,1.28A2.42,2.42,0,0,0,92,100.57a2.38,2.38,0,0,0,2.36-2.36H95a4.42,4.42,0,0,0,1.61-.63c.1,0,.22.1.43.1a.1.1,0,0,1-.1.1,1.77,1.77,0,0,0,1.71,1.73,1.7,1.7,0,0,0,1.73-1.73,1,1,0,0,0-.1-.53,3.43,3.43,0,0,0,1.39-2.47ZM98,106.48a1.7,1.7,0,0,1,1.71,1.71A1.68,1.68,0,0,1,98,109.8a1.65,1.65,0,0,1-1.61-1.61A1.68,1.68,0,0,1,98,106.48Zm-5.92-.86A2.28,2.28,0,0,1,94.32,108a2.23,2.23,0,0,1-2.26,2.36A2.47,2.47,0,0,1,89.7,108a2.38,2.38,0,0,1,2.36-2.36Zm-1.39-3.87a1.44,1.44,0,0,1,1.39,1.51,1.4,1.4,0,0,1-1.39,1.39,1.44,1.44,0,0,1-1.51-1.39,1.48,1.48,0,0,1,1.51-1.51Zm5.58-1.39a2.61,2.61,0,0,1,2.59,2.57,2.52,2.52,0,0,1-2.59,2.47,2.49,2.49,0,0,1-2.47-2.47,2.59,2.59,0,0,1,2.47-2.57Zm5.38-3v7.52a1.88,1.88,0,0,0,1.61,1c1.4,0,2.59-2,2.59-4.73s-1.18-4.71-2.59-4.71a1.92,1.92,0,0,0-1.61,1Z" style="fill:#595959;fill-rule:evenodd"/><path d="M16,85a3.43,3.43,0,1,1,0,6.87h-.1V89.2a.45.45,0,0,0-.43-.43H12.69v-.33A3.34,3.34,0,0,1,16,85.13ZM5.48,109.9H8.82v-5.79h1.51v5.79h3.32a.29.29,0,0,1,.33.33v.43c0,.1-.1.22-.33.22H5.48c-.21,0-.33-.12-.33-.22v-.43a.3.3,0,0,1,.33-.33ZM15.7,98.33v.31c0,2.91-2.69,5.15-6.13,5.15s-6.13-2.24-6.13-5.15v-.31h0V95.21H15.7v3.12ZM3.44,94.78V89.3a.46.46,0,0,1,.43-.43H15.26a.46.46,0,0,1,.45.43v5.48Z" style="fill:#595959;fill-rule:evenodd"/><path d="M179.35,99.92l3.12-3.44,3.87-4.4H173.44l-.63.75-.65.75,2.47,2.89,3.12,3.32Zm-1.39.86h1.18v5.58h2.14a.48.48,0,0,1,.43.53h0a.45.45,0,0,1-.43.43h-5.38a.46.46,0,0,1-.43-.43h0a.49.49,0,0,1,.43-.53H178Zm-10.22-3.65h1.18v5.58H171a.46.46,0,0,1,.43.43h0a.49.49,0,0,1-.43.53H165.6a.48.48,0,0,1-.43-.53h0a.45.45,0,0,1,.43-.43h2.14Zm1.4-1,3.12-3.42,3.87-4.3H160.44l4,4.3,3.12,3.42Z" style="fill:#595959;fill-rule:evenodd"/><path d="M169.34,14.1h3.34v9.35a2.38,2.38,0,0,1,1.71,2.14V36.75h-6.76V25.59a2.66,2.66,0,0,1,1.71-2.14Zm-.1-.43h3.65c.1,0,.33.1.33.22h0c0,.1-.22.21-.33.21h-3.65c-.22,0-.33-.1-.33-.21h0c0-.12.1-.22.33-.22Zm8.6-2.24h3.32v9.33a2.28,2.28,0,0,1,1.71,2.14V34.07H176.1V22.8a2.73,2.73,0,0,1,1.73-2Zm-.1-.55h3.65c.1,0,.21.22.21.33h0a.24.24,0,0,1-.21.22h-3.65c-.22,0-.33-.12-.33-.22h0c0-.1.1-.21.33-.21Z" style="fill:#595959;fill-rule:evenodd"/><path d="M84.62,8.88h24.49a.71.71,0,0,1,.65.75v11.7H83.87V9.63c0-.43.33-.63.75-.63ZM86,11.14h1.4V14a1.41,1.41,0,0,1,.75,1v5.36H85.38V14.89A1,1,0,0,1,86,14Zm12.36,0h1.28V14a1.36,1.36,0,0,1,.75,1v5.36H97.62V14.89c0-.33.33-.63.75-.86Zm-4.2,0h1.4V14a1.4,1.4,0,0,1,.75,1v5.36H93.55V14.89c0-.33.31-.63.63-.86Zm-4.08,0h1.39V14a1.32,1.32,0,0,1,.75,1v5.36H89.45V14.89c0-.33.33-.63.65-.86Zm19.66,11.27V34.1a.62.62,0,0,1-.65.65H84.62c-.43,0-.75-.22-.75-.65V22.41Zm-3.22,2.26h1.28v3.1a.92.92,0,0,1,.75.87V34.1l-2.79-.1V28.64a.94.94,0,0,1,.75-.87Zm-4.09,0h1.3v3.1a.94.94,0,0,1,.75.87V34.1l-2.79-.1V28.64a.93.93,0,0,1,.74-.87Zm-4.08,0h1.28v3.1a1.07,1.07,0,0,1,.75.87V34.1L97.62,34V28.64a.94.94,0,0,1,.75-.87Zm-4.2,0h1.4v3.1a1.1,1.1,0,0,1,.75.87V34.1L93.55,34V28.64a1,1,0,0,1,.63-.87Zm-4.08,0h1.39v3.1a1,1,0,0,1,.75.87V34.1L89.45,34V28.64a1,1,0,0,1,.65-.87Zm-4.09,0h1.4v3.1a1.1,1.1,0,0,1,.75.87V34.1L85.38,34V28.64a.83.83,0,0,1,.63-.87Z" style="fill:#595959;fill-rule:evenodd"/><path d="M5.48,18.46,7.42,16.3,9.9,13.51H0L2.47,16.3,4.4,18.46Zm6.46,2.24,2-2.14,2.47-2.69H8.27l-.43.43-.43.55L9,18.56,11,20.7ZM17.3.53H21V10.84a2.74,2.74,0,0,1,1.94,2.47V25.75H15.36V17.59l2.06-2.24H15.36V13.2a3,3,0,0,1,1.94-2.36ZM17.09,0h4.08c.22,0,.33.1.33.21h0a.28.28,0,0,1-.33.33H17.09a.35.35,0,0,1-.33-.33h0c0-.1.22-.21.33-.21Zm-6,21.35h.74V24.9h1.3c.21,0,.33.1.33.21h0a.29.29,0,0,1-.33.33H9.78a.29.29,0,0,1-.33-.33h0c0-.1.12-.21.33-.21h1.3ZM4.62,19h.75v3.54H6.66a.28.28,0,0,1,.33.33H7c0,.1-.1.21-.33.21H3.34c-.22,0-.33-.1-.33-.21H3a.28.28,0,0,1,.33-.33H4.62Z" style="fill:#595959;fill-rule:evenodd"/><path d="M183.58,308.29a.56.56,0,0,0-.38-1h-15.1c0-.09,0-.18,0-.27a5.53,5.53,0,1,0-1.54,3.83l6.56,6.14v9.31l-4.87,2.11a.56.56,0,0,0,.22,1.07h10.43a.56.56,0,0,0,.16-1.1l-4.81-2.09V317ZM173.69,316l-8.09-7.57h16.18Zm-11.11-4.27a4.68,4.68,0,1,1,4.68-4.68c0,.09,0,.18,0,.27h-3.07a.56.56,0,0,0-.38,1l2.15,2A4.64,4.64,0,0,1,162.58,311.74Zm8.6,16.66,2.51-1.09,2.51,1.09Z" style="fill:#595959"/><path d="M169.23,310.65l4.35,4.07a.16.16,0,0,0,.22,0l4.35-4.07a.16.16,0,0,0-.11-.28h-8.7a.16.16,0,0,0-.11.28Z" style="fill:#595959"/><path d="M161.29,306.87a.16.16,0,0,0,.11-.27l-1.79-1.79a.16.16,0,0,0-.24,0,3.88,3.88,0,0,0-.68,1.87.16.16,0,0,0,.16.17Z" style="fill:#595959"/><path d="M162.11,308.38a.16.16,0,0,0-.17,0l-1.6,1.6a.16.16,0,0,0,0,.24,3.88,3.88,0,0,0,1.67.66.16.16,0,0,0,.18-.16v-2.23A.16.16,0,0,0,162.11,308.38Z" style="fill:#595959"/><path d="M161.44,307.72a.16.16,0,0,0-.15-.1H158.9a.16.16,0,0,0-.16.19,3.89,3.89,0,0,0,.79,1.7.16.16,0,0,0,.24,0l1.63-1.63A.16.16,0,0,0,161.44,307.72Z" style="fill:#595959"/><path d="M163.05,306.1a.16.16,0,0,0,.17,0l1.82-1.82a.16.16,0,0,0,0-.24,3.89,3.89,0,0,0-1.9-.83.16.16,0,0,0-.18.16V306A.16.16,0,0,0,163.05,306.1Z" style="fill:#595959"/><path d="M163.05,308.38a.16.16,0,0,0-.1.15v2.23a.16.16,0,0,0,.18.16,3.88,3.88,0,0,0,1.67-.66.16.16,0,0,0,0-.24l-1.6-1.6A.16.16,0,0,0,163.05,308.38Z" style="fill:#595959"/><path d="M162,303.19a3.89,3.89,0,0,0-1.9.83.16.16,0,0,0,0,.24l1.82,1.82a.16.16,0,0,0,.27-.11v-2.61a.16.16,0,0,0-.18-.16Z" style="fill:#595959"/><path d="M163.72,306.77a.16.16,0,0,0,.15.1h2.44a.16.16,0,0,0,.16-.17,3.88,3.88,0,0,0-.68-1.87.16.16,0,0,0-.24,0l-1.79,1.79A.16.16,0,0,0,163.72,306.77Z" style="fill:#595959"/><path d="M341.63,18.1a5.53,5.53,0,1,0-5.53-5.53c0,.12,0,.23,0,.35h-7.21a.56.56,0,0,0-.49.84,11.51,11.51,0,0,1,.94,5.16,13.76,13.76,0,0,1-.7,3.19c-.78,2.68-1.76,6-.1,8.22,1.06,1.41,3,2.13,5.9,2.22v4l-4.87,2.11a.56.56,0,0,0,.22,1.07h10.43a.56.56,0,0,0,.16-1.1l-4.81-2.09v-4c2.9-.08,4.85-.81,5.9-2.22,1.66-2.21.68-5.54-.1-8.22a13.76,13.76,0,0,1-.7-3.19c0-.32,0-.62,0-.91A5.54,5.54,0,0,0,341.63,18.1Zm-4.69-5.53a4.71,4.71,0,1,1,3.83,4.6,9.7,9.7,0,0,1,.85-3.41.56.56,0,0,0-.49-.84H337C337,12.81,336.95,12.69,336.95,12.58Zm-4.43,26.09L335,37.58l2.51,1.09Zm8.08-9c-.89,1.18-2.76,1.79-5.57,1.79s-4.68-.6-5.57-1.79c-1.32-1.76-.47-4.67.28-7.23a14,14,0,0,0,.75-3.5,14.73,14.73,0,0,0-.73-4.88h10.53a14.73,14.73,0,0,0-.73,4.88,14,14,0,0,0,.75,3.5C341.07,25,341.92,27.9,340.59,29.66Z" style="fill:#595959"/><path d="M342.19,16.44a3.88,3.88,0,0,0,1.67-.66.16.16,0,0,0,0-.24l-1.6-1.6a.16.16,0,0,0-.27.11v2.23a.16.16,0,0,0,.18.16Z" style="fill:#595959"/><path d="M345.31,13.14h-2.39a.16.16,0,0,0-.11.27L344.43,15a.16.16,0,0,0,.24,0,3.89,3.89,0,0,0,.79-1.7.16.16,0,0,0-.16-.19Z" style="fill:#595959"/><path d="M342.77,12.29a.16.16,0,0,0,.15.1h2.44a.16.16,0,0,0,.16-.17,3.88,3.88,0,0,0-.68-1.87.16.16,0,0,0-.24,0l-1.79,1.79A.16.16,0,0,0,342.77,12.29Z" style="fill:#595959"/><path d="M342.1,11.63a.16.16,0,0,0,.17,0l1.82-1.82a.16.16,0,0,0,0-.24,3.89,3.89,0,0,0-1.9-.83.16.16,0,0,0-.18.16v2.61A.16.16,0,0,0,342.1,11.63Z" style="fill:#595959"/><path d="M338.67,10.33a.16.16,0,0,0-.24,0,3.88,3.88,0,0,0-.68,1.87.16.16,0,0,0,.16.17h2.44a.16.16,0,0,0,.11-.27Z" style="fill:#595959"/><path d="M341.26,11.48V8.87a.16.16,0,0,0-.18-.16,3.89,3.89,0,0,0-1.9.83.16.16,0,0,0,0,.24L341,11.59a.16.16,0,0,0,.27-.11Z" style="fill:#595959"/><path d="M338.71,18.34a.16.16,0,0,0-.16-.16h-7a.16.16,0,0,0-.16.16c0,.2,0,.4,0,.58a10.62,10.62,0,0,1-.49,2.72c-.27,1-.57,1.9-.81,2.87-.3,1.2-.68,3-.15,4.2.76,1.7,3.56,1.86,5.12,1.86s4.36-.16,5.12-1.86c1.09-2.44-1.45-7.11-1.45-9.79C338.7,18.74,338.7,18.54,338.71,18.34Zm-7,5.55.23-2a.38.38,0,0,1,.42-.33l2,.23a.38.38,0,0,1,.33.42l-.23,2a.38.38,0,0,1-.42.33l-2-.23A.38.38,0,0,1,331.73,23.89Zm3.56,3.71-1,1.75a.38.38,0,0,1-.51.14l-1.75-1a.38.38,0,0,1-.14-.51l1-1.75a.38.38,0,0,1,.51-.14l1.75,1A.38.38,0,0,1,335.29,27.6Zm3.86-1.88a.38.38,0,0,1-.14.51l-1.75,1a.38.38,0,0,1-.51-.14l-1-1.75a.38.38,0,0,1,.14-.51l1.75-1a.38.38,0,0,1,.51.14Z" style="fill:#595959"/><path d="M343.89,232.78a.66.66,0,0,0-.49-1.1H321a.66.66,0,0,0-.49,1.1l11,12.32v9l-5.74,2.49a.66.66,0,0,0,.26,1.27h12.28a.66.66,0,0,0,.18-1.29l-5.67-2.46v-9Zm-2,.22-9.72,10.86L322.48,233ZM329.24,256.5l3-1.28,3,1.28Z" style="fill:#595959"/><path d="M329.44,235.63h1.49a.1.1,0,0,0,.07-.18l-1-1a.1.1,0,0,0-.08,0,.1.1,0,0,0-.08,0,2.55,2.55,0,0,0-.47,1.08.1.1,0,0,0,.1.12Z" style="fill:#595959"/><path d="M332.32,241.95l5.12-5.72a.25.25,0,0,0,0-.25.19.19,0,0,0-.17-.14H327.07a.19.19,0,0,0-.17.14.25.25,0,0,0,0,.25l5.12,5.72A.17.17,0,0,0,332.32,241.95Zm-2.5-4.51a.1.1,0,0,1-.08,0,2.56,2.56,0,0,1-.43-1.16.1.1,0,0,1,.1-.12h1.52a.1.1,0,0,1,.07.18l-1.11,1.12A.1.1,0,0,1,329.82,237.44Zm1.69,1a.1.1,0,0,1-.09,0,2.55,2.55,0,0,1-1.19-.55.1.1,0,0,1,0-.15l1.13-1.14a.1.1,0,0,1,.18.07v1.67A.1.1,0,0,1,331.51,238.46Zm.56,0a.1.1,0,0,1,0-.08v-1.69a.1.1,0,0,1,.18-.07l1.22,1.21a.1.1,0,0,1,0,.16,2.56,2.56,0,0,1-1.26.5A.1.1,0,0,1,332.07,238.48Z" style="fill:#595959"/><path d="M261.44,14.84h-9.06c0-.15,0-.3,0-.45a5.68,5.68,0,1,0-4,5.43l.06,0c.75.4,1.53.82,1.53,3.74a2.93,2.93,0,0,0,2.93,2.93h1.06v7.82l-4.87,2.11a.56.56,0,0,0,.22,1.07h10.43a.56.56,0,0,0,.16-1.1l-4.82-2.09V26.51h1.06A2.93,2.93,0,0,0,259,23.58c0-2.92.78-3.33,1.53-3.74A2.27,2.27,0,0,0,262,17.49V15.4A.56.56,0,0,0,261.44,14.84ZM247,18l0,.11a2.74,2.74,0,0,0,.07.33l0,.09a2.1,2.1,0,0,0,.12.3l0,0,0,0a4.63,4.63,0,0,1-.56,0,4.54,4.54,0,1,1,4.54-4.54c0,.15,0,.3,0,.45h-3.72a.56.56,0,0,0-.56.56v2.09A4,4,0,0,0,247,18Zm10,18.4h-5l2.51-1.09Zm3.88-18.91a1.2,1.2,0,0,1-.84,1.37c-1.12.6-2.12,1.41-2.12,4.73a1.81,1.81,0,0,1-1.81,1.81h-3.24a1.81,1.81,0,0,1-1.81-1.81c0-3.32-1-4.13-2.12-4.73a1.85,1.85,0,0,1-.62-.43l0,0,0-.06a1.71,1.71,0,0,1-.16-.84V16h12.77Z" style="fill:#595959"/><path d="M249.47,18a.16.16,0,0,0,.08.18,4.32,4.32,0,0,1,1.06.78c1.15,1.19,1.34,3,1.34,4.61a.94.94,0,0,0,.94.94h3.24a.94.94,0,0,0,.94-.94c0-1.58.19-3.42,1.34-4.61a4.32,4.32,0,0,1,1.06-.78.16.16,0,0,0-.08-.3h-9.75A.16.16,0,0,0,249.47,18Z" style="fill:#595959"/><path d="M247.88,14.11a.16.16,0,0,0,.15.1h2.44a.16.16,0,0,0,.16-.17,3.88,3.88,0,0,0-.68-1.87.16.16,0,0,0-.24,0l-1.79,1.79A.16.16,0,0,0,247.88,14.11Z" style="fill:#595959"/><path d="M245.46,14.2a.16.16,0,0,0,.11-.27l-1.79-1.79a.16.16,0,0,0-.24,0,3.88,3.88,0,0,0-.68,1.87.16.16,0,0,0,.16.17Z" style="fill:#595959"/><path d="M247.21,13.44a.16.16,0,0,0,.17,0l1.82-1.82a.16.16,0,0,0,0-.24,3.89,3.89,0,0,0-1.9-.83.16.16,0,0,0-.18.16v2.61A.16.16,0,0,0,247.21,13.44Z" style="fill:#595959"/><path d="M246.19,10.52a3.89,3.89,0,0,0-1.9.83.16.16,0,0,0,0,.24l1.82,1.82a.16.16,0,0,0,.27-.11V10.68a.16.16,0,0,0-.18-.16Z" style="fill:#595959"/><path d="M246.27,15.72a.16.16,0,0,0-.17,0l-1.6,1.6a.16.16,0,0,0,0,.24,3.88,3.88,0,0,0,1.67.66.16.16,0,0,0,.18-.16V15.87A.16.16,0,0,0,246.27,15.72Z" style="fill:#595959"/><path d="M245.6,15.05a.16.16,0,0,0-.15-.1h-2.39a.16.16,0,0,0-.16.19,3.89,3.89,0,0,0,.79,1.7.16.16,0,0,0,.24,0l1.63-1.63A.16.16,0,0,0,245.6,15.05Z" style="fill:#595959"/><path d="M258,154.83a5.53,5.53,0,0,0-5.32,5.72c0,.12,0,.23,0,.35h-2.57l-.73-2.72a.56.56,0,0,0-.29-.36l-5-2.51a.56.56,0,0,0-.5,1l4.75,2.39.59,2.19h-1.72a.56.56,0,0,0-.55.47c-1.08,6.48.74,13.85,3.12,16.65a3.73,3.73,0,0,0,1.91,1.32v6.25l-4.87,2.11a.56.56,0,0,0,.22,1.07h10.43a.56.56,0,0,0,.16-1.1l-4.81-2.09v-6.25a3.73,3.73,0,0,0,1.91-1.32c1.84-2.17,3.34-7.05,3.43-12.15h.2a5.53,5.53,0,1,0-.4-11Zm-8.21,32.84,2.51-1.09,2.51,1.09Zm4.12-10.37a1.81,1.81,0,0,1-3.23,0c-2.16-2.55-3.81-9.22-2.94-15.28h1.54l1.37,5.11h-2a.16.16,0,0,0-.16.17,23.94,23.94,0,0,0,1.39,6.63,10,10,0,0,0,1.5,2.78c.19.22.64.7,1,.7s.78-.48,1-.7a10,10,0,0,0,1.5-2.78,23.94,23.94,0,0,0,1.39-6.63.16.16,0,0,0-.16-.17h-4.19L250.45,162h6.42C257.74,168.08,256.09,174.75,253.93,177.3ZM258.38,165h-.16a24.22,24.22,0,0,0-.32-3.66.56.56,0,0,0-.55-.47h-3.79c0-.13,0-.25,0-.38a4.68,4.68,0,1,1,4.85,4.51Z" style="fill:#595959"/><path d="M255.17,158.21a.15.15,0,0,0-.13,0,.15.15,0,0,0-.11.07,3.88,3.88,0,0,0-.61,1.89.16.16,0,0,0,.16.17l2.44-.09a.16.16,0,0,0,.1-.28Z" style="fill:#595959"/><path d="M261.9,160.78l-2.39.09a.16.16,0,0,0-.1.28l1.69,1.57a.16.16,0,0,0,.24,0,3.89,3.89,0,0,0,.73-1.73.16.16,0,0,0-.16-.18Z" style="fill:#595959"/><path d="M259.34,160a.16.16,0,0,0,.15.09l2.44-.09a.16.16,0,0,0,.15-.18,3.88,3.88,0,0,0-.75-1.84.16.16,0,0,0-.24,0l-1.73,1.86A.16.16,0,0,0,259.34,160Z" style="fill:#595959"/><path d="M258.82,159.34l1.75-1.88a.16.16,0,0,0,0-.24,3.89,3.89,0,0,0-1.92-.76.16.16,0,0,0-.18.16l.09,2.61a.16.16,0,0,0,.28.1Z" style="fill:#595959"/><path d="M257.64,156.54a.15.15,0,0,0-.13,0,3.89,3.89,0,0,0-1.87.89.16.16,0,0,0,0,.24l1.88,1.75a.16.16,0,0,0,.27-.12l-.09-2.61A.15.15,0,0,0,257.64,156.54Z" style="fill:#595959"/><path d="M258.9,161.69a.16.16,0,0,0-.27.12l.08,2.23a.16.16,0,0,0,.19.15,3.88,3.88,0,0,0,1.65-.72.15.15,0,0,0,.06-.12.15.15,0,0,0-.05-.12Z" style="fill:#595959"/><path d="M343.89,306.28a.63.63,0,0,0-.47-1h-4.1l.23-.34.26.06a1.58,1.58,0,0,0,1.42-2.56l1-1.5a.47.47,0,0,0-.78-.53l-1,1.51-.26-.06a1.58,1.58,0,0,0-1.42,2.56l-.59.87H322.1a.63.63,0,0,0-.47,1L332.13,318v8.54l-5.46,2.37a.63.63,0,0,0,.25,1.21h11.7a.63.63,0,0,0,.17-1.23l-5.4-2.34V318Zm-6.55.21-1.82,2.71h-7.63a.18.18,0,0,0-.17.13.24.24,0,0,0,0,.23l4.88,5.45a.16.16,0,0,0,.24,0l4.88-5.45a.24.24,0,0,0,0-.23.18.18,0,0,0-.17-.13h-1l1.82-2.71H342l-9.26,10.34-9.26-10.34ZM330,328.87l2.81-1.22,2.81,1.22Z" style="fill:#595959"/><path d="M262.28,89.69a.56.56,0,0,0-.41-.18h-8.21c0-.15,0-.3,0-.45a5.68,5.68,0,1,0-5.09,5.63l1.24,17.3a.56.56,0,0,0,.56.52h9.92a.56.56,0,0,0,.56-.52l1.56-21.88A.56.56,0,0,0,262.28,89.69ZM248,93.61a4.54,4.54,0,1,1,4.54-4.54c0,.15,0,.3,0,.45h-3.72a.56.56,0,0,0-.22,0l0,0a.56.56,0,0,0-.14.1h0l0,.06a.55.55,0,0,0-.07.12.56.56,0,0,0,0,.1.53.53,0,0,0,0,.1,1.82,1.82,0,0,0,0,.25l.23,3.26Zm11.77,17.79h-8.88l-1.48-20.76h11.84Z" style="fill:#595959"/><path d="M248.49,88.12a.16.16,0,0,0,.17,0l1.82-1.82a.16.16,0,0,0,0-.24,3.89,3.89,0,0,0-1.9-.83.16.16,0,0,0-.18.16V88A.16.16,0,0,0,248.49,88.12Z" style="fill:#595959"/><path d="M246.73,88.88a.16.16,0,0,0,.11-.27l-1.79-1.79a.16.16,0,0,0-.24,0,3.88,3.88,0,0,0-.68,1.87.16.16,0,0,0,.16.17Z" style="fill:#595959"/><path d="M249.16,88.78a.16.16,0,0,0,.15.1h2.44a.16.16,0,0,0,.16-.17,3.88,3.88,0,0,0-.68-1.87.16.16,0,0,0-.24,0l-1.79,1.79A.16.16,0,0,0,249.16,88.78Z" style="fill:#595959"/><path d="M246.88,89.73a.16.16,0,0,0-.15-.1h-2.39a.16.16,0,0,0-.16.19,3.89,3.89,0,0,0,.79,1.7.16.16,0,0,0,.24,0l1.63-1.63A.16.16,0,0,0,246.88,89.73Z" style="fill:#595959"/><path d="M247.54,90.39a.16.16,0,0,0-.17,0l-1.6,1.6a.16.16,0,0,0,0,.24,3.88,3.88,0,0,0,1.67.66.16.16,0,0,0,.18-.16V90.54A.16.16,0,0,0,247.54,90.39Z" style="fill:#595959"/><path d="M247.46,85.2a3.89,3.89,0,0,0-1.9.83.16.16,0,0,0,0,.24l1.82,1.82a.16.16,0,0,0,.27-.11V85.36a.16.16,0,0,0-.18-.16Z" style="fill:#595959"/><path d="M250.69,95.43a.15.15,0,0,0,0,.12l1,13.47a.16.16,0,0,0,.16.15h7.15a.16.16,0,0,0,.16-.15l1-13.47a.16.16,0,0,0-.16-.17h-9.08A.15.15,0,0,0,250.69,95.43Zm7.72,12-1.77,1a.38.38,0,0,1-.51-.14l-1-1.77a.38.38,0,0,1,.14-.51l1.77-1a.38.38,0,0,1,.51.14l1,1.77A.38.38,0,0,1,258.41,107.38Zm-.83-8.18a.38.38,0,0,1,.49.22l.73,1.9a.38.38,0,0,1-.22.49l-1.9.73a.38.38,0,0,1-.49-.22l-.73-1.9a.38.38,0,0,1,.22-.49Zm-5.35-.75.73-1.9a.38.38,0,0,1,.49-.22l1.9.73a.38.38,0,0,1,.22.49l-.73,1.9a.38.38,0,0,1-.49.22l-1.9-.73A.38.38,0,0,1,252.23,98.44Zm0,4.08a.38.38,0,0,1,.42-.33l2,.24a.38.38,0,0,1,.33.42l-.24,2a.38.38,0,0,1-.42.33l-2-.24a.38.38,0,0,1-.33-.42Z" style="fill:#595959"/><path d="M265.28,236.55a.56.56,0,0,0,.14-.62c-.08-.21-.29-.35-.52-.69H251.19c.12.1.2-.17.2-.45a1.75,1.75,0,0,0-1.75-1.75,1.73,1.73,0,0,0-.51.08.39.39,0,0,0,0,0,3,3,0,0,0-2.26-1.5.42.42,0,1,0-.13.83,2.16,2.16,0,0,1,1.65,1.07l0,0a1.75,1.75,0,0,0-.54,1.26c0,.29.07.55.2.45h-2.2c-.23.34-.44.48-.52.69a.56.56,0,0,0,.14.62l9.55,8.73v9.31l-5.1,2.11a.56.56,0,0,0-.33.63c.05.26.28.45.55-.09h10.43c.31.54.56.29.56,0a.56.56,0,0,0-.41-.54l-4.71-2.09v-9.31Zm-1.8-.31-8.09,7.57-8.09-7.57Zm-10.6,20,2.51-1.09,2.51,1.09Z" style="fill:#595959;fill-rule:evenodd"/><path d="M259.85,238.52a.16.16,0,0,0-.11-.28H251a.16.16,0,0,0-.11.28l4.35,4.07a.16.16,0,0,0,.22,0Z" style="fill:#595959;fill-rule:evenodd"/><path d="M261.24,329.42l-4.82-2.09v-5.19L260.92,306a.56.56,0,0,0-.54-.71h-4.17c0-.16,0-.33,0-.5a5.54,5.54,0,1,0-4.27,5.38l3.33,12v5.19l-4.87,2.11a.56.56,0,0,0,.22,1.07h10.43a.56.56,0,0,0,.16-1.1ZM255.86,320l-3.78-13.56h7.55Zm-5.15-10.49a4.76,4.76,0,1,1,4.65-4.19h-4a.56.56,0,0,0-.54.71l.28,1v1.51a.16.16,0,0,0,.18.16l.27-.05.21.75A4.68,4.68,0,0,1,250.71,309.48Zm2.65,19.91,2.51-1.09,2.51,1.09Z" style="fill:#595959"/><path d="M255.71,316.18a.16.16,0,0,0,.31,0l1.6-5.75h-3.51Z" style="fill:#595959"/><path d="M251.85,304.52a.16.16,0,0,0,.15.1h2.44a.16.16,0,0,0,.16-.17,3.88,3.88,0,0,0-.68-1.87.16.16,0,0,0-.24,0l-1.79,1.79A.16.16,0,0,0,251.85,304.52Z" style="fill:#595959"/><path d="M251.18,303.85a.16.16,0,0,0,.17,0l1.82-1.82a.16.16,0,0,0,0-.24,3.89,3.89,0,0,0-1.9-.83.16.16,0,0,0-.18.16v2.61A.16.16,0,0,0,251.18,303.85Z" style="fill:#595959"/><path d="M249.42,304.62a.16.16,0,0,0,.11-.27l-1.79-1.79a.16.16,0,0,0-.24,0,3.88,3.88,0,0,0-.68,1.87.16.16,0,0,0,.16.17Z" style="fill:#595959"/><path d="M250.16,300.93a3.89,3.89,0,0,0-1.9.83.16.16,0,0,0,0,.24l1.82,1.82a.16.16,0,0,0,.27-.11v-2.61a.16.16,0,0,0-.18-.16Z" style="fill:#595959"/><path d="M249.57,305.46a.16.16,0,0,0-.15-.1H247a.16.16,0,0,0-.16.19,3.89,3.89,0,0,0,.79,1.7.16.16,0,0,0,.24,0l1.63-1.63A.16.16,0,0,0,249.57,305.46Z" style="fill:#595959"/><path d="M250.24,306.13a.16.16,0,0,0-.17,0l-1.6,1.6a.16.16,0,0,0,0,.24,3.88,3.88,0,0,0,1.67.66.16.16,0,0,0,.18-.16v-2.23A.16.16,0,0,0,250.24,306.13Z" style="fill:#595959"/><path d="M340.77,162a.56.56,0,0,0-.41-.18h-9.85l-.52-1.93a.56.56,0,0,0-.29-.36l-5-2.51a.56.56,0,0,0-.5,1l4.75,2.39.38,1.4H325a.56.56,0,0,0-.56.61l1.84,21.88a.56.56,0,0,0,.56.51h11.7a.56.56,0,0,0,.56-.51l1.84-21.88A.56.56,0,0,0,340.77,162ZM338,183.66H327.33l-1.75-20.76h4.07l1.27,4.74h-3.61a.2.2,0,0,0-.14.05.14.14,0,0,0,0,.12l1.13,13.47a.18.18,0,0,0,.19.15h8.44a.18.18,0,0,0,.19-.15l1.13-13.47a.14.14,0,0,0,0-.12.2.2,0,0,0-.14-.05h-5.94l-1.27-4.74h8.94Zm-2.09-13.41a.12.12,0,0,1-.08.06l-2,.47a.13.13,0,0,1-.14-.19l1.09-1.76a.13.13,0,0,1,.19,0,3.08,3.08,0,0,1,.93,1.35A.12.12,0,0,1,335.91,170.25Zm0,.65a.12.12,0,0,1,.1,0,.12.12,0,0,1,.05.09,3.07,3.07,0,0,1-.32,1.54.13.13,0,0,1-.18.05l-1.65-1a.13.13,0,0,1,0-.23Zm-.69,2.19a.13.13,0,0,1,0,.19,3.08,3.08,0,0,1-1.24.81.13.13,0,0,1-.16-.09l-.42-1.78a.13.13,0,0,1,.19-.14Zm-1.29,2.21a.38.38,0,0,1,.48-.23l1.91.69a.38.38,0,0,1,.23.48l-.69,1.91a.38.38,0,0,1-.48.23l-1.91-.69a.38.38,0,0,1-.23-.48Zm-.17,4.2a.12.12,0,0,1,0,.1,3.08,3.08,0,0,1-1.47.73.13.13,0,0,1-.15-.11l-.17-2a.13.13,0,0,1,.21-.11l1.58,1.33A.12.12,0,0,1,333.78,179.49Zm-.53-5.28a.12.12,0,0,1-.09.05,3.07,3.07,0,0,1-1.4-.25.13.13,0,0,1-.06-.18l.93-1.5a.13.13,0,0,1,.23,0l.41,1.75A.12.12,0,0,1,333.25,174.22Zm-4.59,3.55a.12.12,0,0,1,.09,0l1.82-.16a.13.13,0,0,1,.11.21l-1.22,1.45a.13.13,0,0,1-.19,0,3.08,3.08,0,0,1-.62-1.35A.12.12,0,0,1,328.67,177.77Zm0-.68a.12.12,0,0,1,0-.1,3.07,3.07,0,0,1,.45-1.35.13.13,0,0,1,.19,0l1.35,1.14a.13.13,0,0,1-.07.22l-1.79.15A.12.12,0,0,1,328.63,177.09Zm1.25,2.54,1.25-1.48a.13.13,0,0,1,.22.07l.17,2a.13.13,0,0,1-.14.14,3.07,3.07,0,0,1-1.48-.54.13.13,0,0,1,0-.18Zm1.59-7.91-1.94.6a.38.38,0,0,1-.47-.25l-.6-1.94a.38.38,0,0,1,.25-.47l1.94-.6a.38.38,0,0,1,.47.25l.6,1.94A.38.38,0,0,1,331.47,171.73Z" style="fill:#595959"/><path d="M345.91,90.61a.56.56,0,0,0-.42-.93H333L331.19,86a.56.56,0,0,0-.35-.3l-5.35-1.56a.56.56,0,0,0-.31,1.08l5.11,1.49,1.43,3h-5.24a.56.56,0,0,0-.42.93l9.37,10.46v7.62l-4.87,2.11a.56.56,0,0,0,.22,1.07h10.43a.56.56,0,0,0,.16-1.1l-4.82-2.09v-7.62Zm-13.65.19,1.15,2.41h-1.77a.16.16,0,0,0-.15.12.21.21,0,0,0,0,.21l4.35,4.86a.14.14,0,0,0,.22,0l4.35-4.86a.21.21,0,0,0,0-.21.16.16,0,0,0-.15-.12h-5.68L333.5,90.8h10.74L336,100l-8.25-9.22Zm1.22,20,2.51-1.09,2.51,1.09Z" style="fill:#595959"/></g></g></svg>